<svg width="20" height="20" viewBox="0 0 20 20" fill="none" xmlns="http://www.w3.org/2000/svg">
<path d="M10.0001 1.04163C14.9476 1.04163 18.9584 5.05241 18.9584 9.99996C18.9584 14.9475 14.9476 18.9583 10.0001 18.9583C5.05253 18.9583 1.04175 14.9475 1.04175 9.99996C1.04175 5.05241 5.05253 1.04163 10.0001 1.04163ZM10.0001 2.29163C5.74289 2.29163 2.29175 5.74276 2.29175 9.99996C2.29175 14.2572 5.74289 17.7083 10.0001 17.7083C14.2573 17.7083 17.7084 14.2572 17.7084 9.99996C17.7084 5.74276 14.2573 2.29163 10.0001 2.29163ZM10.0001 4.04211C10.3165 4.04211 10.578 4.27724 10.6194 4.5823L10.6251 4.66711V9.73246L13.7691 12.723C13.9964 12.9393 14.0253 13.2859 13.8499 13.535L13.7911 13.6066C13.5748 13.834 13.2282 13.8628 12.9791 13.6874L12.9075 13.6286L9.56929 10.4528C9.47008 10.3584 9.40531 10.2348 9.38337 10.1015L9.37508 9.99996V4.66711C9.37508 4.32194 9.6549 4.04211 10.0001 4.04211Z" fill="#252525"/>
</svg>
