<svg width="25" height="25" viewBox="0 0 25 25" fill="none" xmlns="http://www.w3.org/2000/svg">
<path d="M21.3438 11.8125H20.25V5.25H13.9062V4.15625C13.9062 2.34062 12.4406 0.875 10.625 0.875C8.80937 0.875 7.34375 2.34062 7.34375 4.15625V5.25H0.5625V11.8125H1.65625C3.47187 11.8125 4.9375 13.2781 4.9375 15.0938C4.9375 16.9094 3.47187 18.375 1.65625 18.375H0.5625V24.9375H7.34375V23.8438C7.34375 22.0281 8.80937 20.5625 10.625 20.5625C12.4406 20.5625 13.9062 22.0281 13.9062 23.8438V24.9375H20.25V18.375H21.3438C23.1594 18.375 24.625 16.9094 24.625 15.0938C24.625 13.2781 23.1594 11.8125 21.3438 11.8125Z" fill="white" fill-opacity="0.53"/>
</svg>
