<svg width="25" height="21" viewBox="0 0 25 21" fill="none" xmlns="http://www.w3.org/2000/svg">
<path d="M22.3816 15.3532H20.9011C21.5315 14.4675 21.8892 13.4774 21.9346 12.4485C21.9894 11.1776 21.569 9.9322 20.7264 8.83195C20.8512 8.32195 20.8861 7.84045 20.8325 7.40357L21.8075 6.53583C22.1836 6.73758 22.6299 6.75782 23.0525 6.58232C23.5992 6.35582 23.9743 5.85783 24.0072 5.31445C24.0354 4.86558 23.8603 4.41558 23.5392 4.10995C23.318 3.89957 23.042 3.7702 22.7382 3.73082C22.6869 3.47808 22.5695 3.24182 22.3944 3.04307C22.1304 2.7442 21.7655 2.5657 21.3673 2.5402C20.786 2.5042 20.21 2.85745 19.9366 3.42033C19.7262 3.8527 19.733 4.31695 19.943 4.71708L19.1105 5.45695C18.8454 5.38907 18.5679 5.3452 18.2731 5.3452C18.095 5.3452 17.9139 5.3617 17.732 5.3857C17.6367 5.07707 17.5115 4.80183 17.3611 4.55995L17.849 3.43008C18.2563 3.4522 18.6549 3.2842 18.9523 2.95982C19.3407 2.5357 19.4668 1.94395 19.2729 1.4512C19.1131 1.04432 18.7734 0.71995 18.3646 0.58345C18.0871 0.490825 17.7946 0.4897 17.5153 0.576325C17.1324 0.0704501 16.4446 -0.14255 15.8274 0.10045C15.3001 0.3067 14.939 0.853075 14.9289 1.46057C14.921 1.9237 15.1141 2.32682 15.4576 2.5927L15.0421 3.5557C14.09 3.74207 13.1292 4.4032 12.3819 5.4277C8.9525 5.61558 5.528 7.4362 3.96125 9.98658C2.91612 11.6876 2.78825 13.572 3.57575 15.3532H2.618C1.65687 15.3532 0.875 16.1351 0.875 17.0962C0.875 18.0581 1.65687 18.8411 2.618 18.8411H3.48163C3.66425 20.0606 4.715 21 5.98438 21H18.9958C19.6869 21 20.3319 20.7333 20.8115 20.2492C21.1944 19.863 21.4317 19.3721 21.5037 18.8414H22.3816C23.3428 18.8414 24.125 18.0588 24.125 17.0966C24.125 16.1351 23.3428 15.3532 22.3816 15.3532ZM20.6877 5.05832C20.762 4.99232 20.807 4.89932 20.813 4.79995C20.8186 4.70057 20.7849 4.60308 20.7185 4.52845C20.4444 4.22095 20.5332 3.90782 20.6105 3.74845C20.7504 3.46082 21.0399 3.27257 21.3196 3.28907C21.518 3.30145 21.6999 3.3907 21.8315 3.53958C21.9631 3.68845 22.0287 3.8797 22.016 4.0777C22.0089 4.18832 22.0513 4.2967 22.1319 4.3732C22.2125 4.4497 22.3228 4.4872 22.4326 4.47407C22.6666 4.44745 22.8702 4.50933 23.0221 4.6537C23.1819 4.80595 23.2726 5.04107 23.2584 5.26832C23.2426 5.52408 23.0443 5.77382 22.7645 5.8897C22.6389 5.94182 22.3149 6.03557 22.0246 5.77983C21.8825 5.65457 21.6687 5.65495 21.527 5.78058L20.6079 6.59882C20.5055 6.3802 20.3791 6.17732 20.2141 6.0052C20.2032 5.99358 20.1912 5.9827 20.1789 5.97295C20.0859 5.89795 19.9831 5.83682 19.8807 5.77495L20.6877 5.05832ZM19.6891 6.54108C20.2411 7.13695 20.261 8.21545 19.7416 9.4327C19.1109 10.9102 17.7069 12.4057 16.2425 12.4057C15.6508 12.4057 15.0939 12.1537 14.588 11.6561C13.5793 10.6646 13.7019 9.64007 13.982 8.95495C14.6056 7.43132 16.6104 6.0952 18.2724 6.0952C18.8368 6.0952 19.3134 6.2452 19.6891 6.54108ZM16.1011 0.7987C16.4611 0.65695 16.8684 0.835075 17.0098 1.19507C17.0506 1.2982 17.1346 1.37808 17.24 1.41333C17.3454 1.4482 17.4609 1.43545 17.555 1.37695C17.7432 1.26145 17.9412 1.23333 18.1265 1.29483C18.3241 1.36083 18.4959 1.52583 18.5743 1.7257C18.6624 1.94995 18.5915 2.24245 18.3984 2.4532C18.2904 2.57057 18.0605 2.75245 17.7256 2.65382C17.5438 2.60095 17.3506 2.69095 17.2752 2.86495L16.8166 3.92732C16.6415 3.7837 16.4499 3.66782 16.2414 3.58682C16.2268 3.58082 16.2114 3.57632 16.1964 3.5722C16.0906 3.54595 15.9834 3.52945 15.8754 3.51745L16.2762 2.58782C16.3156 2.49633 16.3171 2.39283 16.2804 2.30058C16.2433 2.20795 16.1713 2.13408 16.0798 2.0947C15.7239 1.94208 15.6755 1.63982 15.6781 1.47295C15.6837 1.17145 15.8574 0.89395 16.1011 0.7987ZM15.9924 4.29483C16.4405 4.47783 16.7881 4.9162 16.9948 5.54358C16.7094 5.6272 16.4262 5.73557 16.1495 5.86607C15.2637 5.6062 14.3349 5.45207 13.3835 5.41457C13.3771 5.41457 13.3707 5.41457 13.3647 5.41457C14.174 4.5322 15.152 4.0972 15.9924 4.29483ZM4.60025 10.3792C6.1865 7.79695 9.86975 6.02808 13.3539 6.16345C13.9899 6.18858 14.6139 6.27182 15.2206 6.40345C14.3577 7.00308 13.6434 7.80332 13.2886 8.67107C12.7696 9.9397 13.0445 11.1899 14.063 12.1912C14.7144 12.8313 15.4479 13.1557 16.2432 13.1557C18.116 13.1557 19.7274 11.3786 20.432 9.72707C20.4328 9.72557 20.4331 9.72408 20.4335 9.72258C20.9641 10.5671 21.2255 11.4858 21.1854 12.4158C21.1389 13.4673 20.714 14.4795 19.9535 15.3532H4.40262C3.32937 13.2667 3.9095 11.5038 4.60025 10.3792ZM20.279 19.7212C19.9408 20.0621 19.4851 20.25 18.9958 20.25H5.98438C5.12975 20.25 4.415 19.6451 4.24213 18.8411H20.7455C20.6806 19.1718 20.5212 19.4767 20.279 19.7212ZM22.3816 18.0911H2.618C2.0705 18.0911 1.625 17.6448 1.625 17.0962C1.625 16.5487 2.0705 16.1032 2.618 16.1032H4.178H20.1208H22.3812C22.9291 16.1032 23.3746 16.5487 23.3746 17.0962C23.375 17.6448 22.9295 18.0911 22.3816 18.0911Z" fill="#00AE42"/>
</svg>
